<svg width="300" height="300" viewBox="0 0 300 300" fill="none" xmlns="http://www.w3.org/2000/svg">
<rect width="300" height="300" fill="black"/>
<path opacity="0.83" d="M196.033 136.808L200.938 141.802L210.926 131.992L206.021 126.998L201.027 131.903L196.033 136.808ZM153 83L148.006 87.9048L196.033 136.808L201.027 131.903L206.021 126.998L157.994 78.0952L153 83Z" fill="white"/>
<path d="M171.989 105.031L69.0558 204.587C60.3009 216.635 43.0411 243.259 44.0417 253.364C45.0423 263.47 80.5624 240.149 98.1973 227.225C113.414 212.174 141.972 180.198 143.723 177.321C145.682 174.103 168.737 144.386 180.119 130.045C181.244 129.169 180.869 128.419 183.871 127.043C187.401 125.425 189.749 125.207 189.749 123.416C189.749 123.041 185.372 118.288 171.989 105.031Z" stroke="white" stroke-width="7"/>
<path d="M173.615 104.28L232.398 46.3724C234.941 45.1217 241.153 43.5958 245.656 47.498C250.158 51.4002 254.369 59.0462 255.912 62.3814C256.245 63.7155 256.312 66.3587 253.91 66.2586C250.909 66.1336 240.477 64.5669 238.152 67.2592C235.775 70.0108 230.272 77.8902 230.397 79.1409C229.438 81.0587 230.397 82.3928 225.644 83.6435C223.464 84.2173 222.893 91.3979 219.266 93.1489C215.847 94.4413 208.735 98.0516 207.634 102.154C206.258 107.282 202.146 106.514 199.755 107.657C196.878 109.033 188.498 119.414 190.625 121.29" stroke="white" stroke-width="7"/>
</svg>
